<svg width="2000" height="300" viewBox="0 0 2000 300" fill="none" xmlns="http://www.w3.org/2000/svg" xmlns:xlink="http://www.w3.org/1999/xlink">
<g clip-path="url(#clip0_485_60)">
<rect width="2000" height="300" fill="#414DCB"/>
<rect width="2000" height="300"/>
<path d="M635.128 153V151.08C640.12 150.952 641.272 150.696 642.808 149.672C645.112 148.392 645.88 146.472 645.88 142.888L645.752 70.824C645.752 67.24 644.984 65.32 642.936 64.04C641.272 63.016 640.248 62.76 635.384 62.632V60.712H666.744L694.648 124.328L722.808 60.712H753.528V62.632C748.792 62.76 747.64 63.016 746.104 64.04C743.928 65.32 743.032 67.24 743.032 70.824L743.16 142.888C743.16 146.472 744.056 148.392 746.232 149.672C747.768 150.696 748.792 150.952 753.528 151.08V153H711.672V151.08C716.664 150.952 717.688 150.696 719.352 149.672C721.656 148.392 722.424 146.472 722.424 142.888V78.888L690.04 153H684.536L652.408 79.4V142.888C652.408 146.472 653.432 148.392 655.48 149.672C657.144 150.696 658.168 150.952 662.904 151.08V153H635.128ZM747.466 91.304V89.512H782.282V91.304H780.49C777.034 91.304 775.882 92.072 775.882 94.632C775.882 95.4 776.138 96.68 776.65 98.344L789.322 132.904L803.146 98.344C803.658 96.68 804.042 95.4 804.042 94.632C804.042 92.072 802.634 91.304 798.922 91.304H797.002V89.512H818.378V91.304H817.098C815.818 91.304 814.282 91.56 813.642 91.944C813.002 92.2 812.49 92.84 811.978 93.48C810.698 94.888 810.442 95.272 809.162 98.344L785.994 156.328C783.05 163.496 780.874 167.592 777.93 170.664C774.602 174.504 769.354 176.68 763.722 176.68C756.042 176.68 750.538 172.712 750.538 167.208C750.538 162.984 754.378 159.4 758.986 159.4C762.57 159.4 765.898 161.832 766.41 165.16L766.666 166.824C766.794 167.848 768.074 168.488 769.482 168.488C772.938 168.488 776.01 164.776 778.57 157.096L756.426 98.344C754.506 93.096 752.586 91.304 748.874 91.304H747.466ZM1357.76 153V151.08C1362.62 150.952 1363.65 150.696 1365.18 149.672C1367.36 148.392 1368.13 146.6 1368.13 142.888V140.072V70.824C1368.13 67.24 1367.36 65.32 1365.31 64.04C1363.65 63.016 1362.62 62.888 1357.89 62.632V60.712H1408.19C1436.1 60.84 1456.06 79.784 1456.06 106.408C1456.06 133.672 1435.2 153 1405.63 153H1357.76ZM1389.25 67.752V145.576C1394.24 146.216 1398.46 146.472 1401.79 146.472C1421.25 146.472 1434.18 130.856 1434.18 107.304C1434.18 82.856 1420.61 67.112 1399.62 67.112C1396.93 67.112 1393.47 67.368 1389.25 67.752ZM1460.38 153V151.08C1465.25 150.952 1466.27 150.696 1467.94 149.672C1470.11 148.392 1470.88 146.472 1470.88 142.888V137.768L1471.01 70.824C1471.01 67.24 1470.24 65.448 1468.19 64.04C1466.53 63.016 1465.5 62.888 1460.64 62.76V60.712H1503.39C1526.43 60.84 1539.62 69.16 1539.62 83.752C1539.62 94.248 1532.19 101.672 1519.14 105C1525.54 106.408 1528.1 107.304 1531.81 109.736C1538.98 114.216 1542.94 120.872 1542.94 128.552C1542.94 137 1537.82 144.68 1529.5 149.032C1522.85 152.36 1518.24 153 1501.09 153H1460.38ZM1492 67.624L1491.87 101.416C1495.07 101.8 1497.63 101.928 1499.55 101.928C1510.94 101.928 1518.62 94.888 1518.62 84.264C1518.62 73.896 1511.07 66.984 1499.68 66.984C1497.76 66.984 1495.2 67.24 1492 67.624ZM1492 108.712L1491.87 146.088C1495.58 146.6 1498.66 147.112 1500.83 147.112C1512.35 147.112 1520.93 138.92 1520.93 127.784C1520.93 115.88 1512.48 108.328 1499.3 108.328C1497.5 108.328 1495.07 108.456 1492 108.712Z" fill="white"/>
<path d="M848.634 153V151.08C853.498 150.952 854.522 150.696 856.186 149.672C858.362 148.392 859.13 146.472 859.13 142.888V137.256L859.258 70.824C859.258 67.24 858.49 65.448 856.442 64.04C854.778 63.016 853.754 62.888 848.89 62.76V60.712H922.874L924.666 84.776L922.234 84.904C921.082 76.584 919.29 73.128 914.938 70.312C911.226 67.88 908.666 67.496 897.786 67.496H880.122L879.994 101.672H895.354C906.746 101.672 909.306 99.624 910.074 89.128H911.994L911.866 120.872H909.818C909.562 115.24 908.666 112.68 906.618 110.76C904.57 108.84 902.65 108.456 895.482 108.456L880.122 108.328L879.994 142.888C879.994 146.472 880.89 148.392 882.938 149.672C884.602 150.696 885.626 150.952 890.49 151.08V153H848.634ZM921.244 153V151.208C928.156 151.08 930.076 149.288 930.076 143.4L930.204 139.048V103.848C930.204 98.216 928.924 96.552 924.828 96.552C923.804 96.552 923.292 96.68 921.756 97.064L921.372 95.272L948.764 87.848L948.636 143.4C948.636 149.288 950.684 151.08 957.34 151.208V153H921.244ZM927.26 68.648C927.26 62.504 932.252 57.512 938.396 57.512C944.668 57.512 949.532 62.504 949.532 68.648C949.532 74.664 944.668 79.528 938.524 79.528C932.252 79.528 927.26 74.664 927.26 68.648ZM968.764 150.312C964.284 147.88 962.492 145.448 962.492 141.736C962.492 139.816 963.132 137.896 964.412 136.232C966.332 133.544 968.38 132.136 974.14 129.192C965.436 125.608 960.828 119.336 960.828 110.76C960.828 97.832 972.22 88.616 988.604 88.616C992.572 88.616 994.748 88.872 1000.64 90.024L1022.65 89.512V96.808L1007.55 96.04C1009.47 96.936 1011 97.832 1011.9 98.472C1015.1 101.16 1017.28 106.408 1017.28 111.4C1017.28 123.432 1005.76 132.392 990.524 132.392C986.556 132.392 983.356 132.008 980.668 130.984C977.468 133.288 976.572 134.44 976.572 136.104C976.572 138.408 979.772 139.304 988.988 139.304H995.132H996.156C1002.94 139.304 1005.76 139.432 1009.34 139.816C1017.92 141.224 1022.91 146.6 1022.91 154.664C1022.91 161.192 1019.32 167.336 1013.56 171.176C1007.42 175.144 999.228 176.936 987.708 176.936C968.252 176.936 956.476 171.688 956.476 163.24C956.476 161.576 957.244 159.784 958.268 158.248C960.572 155.432 962.364 154.152 968.764 150.312ZM980.284 109.096V110.632C980.796 120.36 984.252 125.864 990.012 125.864C995.516 125.864 998.332 121 998.332 111.4C998.332 100.648 994.62 94.248 988.604 94.248C983.1 94.248 980.284 98.984 980.284 109.096ZM986.94 154.664C981.308 154.408 980.156 154.28 975.804 153.128C972.604 156.328 971.452 158.248 971.452 160.552C971.452 166.184 979.772 169.896 992.188 169.896C1003.96 169.896 1011.77 166.184 1011.77 160.424C1011.77 157.352 1009.08 155.304 1004.35 155.048H998.332C993.596 155.048 991.036 154.92 986.94 154.664ZM1021.49 95.272L1049.01 87.848V134.696C1049.01 141.608 1051.7 144.808 1057.08 144.808C1060.92 144.808 1063.48 143.272 1069.11 138.024L1068.98 103.976C1068.98 98.216 1067.83 96.552 1063.73 96.552C1062.71 96.552 1062.07 96.68 1060.66 97.064L1060.28 95.272L1087.8 87.848L1087.93 138.28C1087.93 143.528 1089.59 145.704 1093.56 145.704C1094.07 145.704 1095.09 145.704 1096.5 145.448L1096.76 147.24L1069.11 154.536V142.888C1067.32 144.68 1065.53 146.216 1063.99 147.496C1058.87 151.72 1053.24 154.024 1047.61 154.024C1042.74 154.024 1038.26 152.36 1035.06 149.416C1031.48 146.344 1030.33 143.016 1030.33 135.336V103.976C1030.33 98.216 1029.05 96.552 1025.08 96.552C1023.93 96.552 1023.41 96.68 1021.88 97.064L1021.49 95.272ZM1096.24 153V151.208C1103.16 151.08 1105.2 149.288 1105.2 143.4V138.664V103.976C1105.2 98.216 1103.92 96.552 1099.83 96.552C1098.8 96.552 1098.29 96.68 1096.76 97.064L1096.37 95.272L1123.89 87.848V100.776C1129.4 92.84 1134.64 89.128 1140.15 89.128C1144.88 89.128 1148.85 92.84 1148.85 97.448C1148.85 102.056 1145.27 105.512 1140.79 105.512C1138.1 105.512 1136.18 104.616 1134.39 102.312C1133.75 101.544 1133.36 101.032 1132.98 100.648C1132.47 100.136 1131.57 99.752 1130.55 99.752C1129.91 99.752 1128.88 100.008 1127.99 100.648C1125.17 103.08 1124.02 106.536 1124.02 113.576L1123.89 143.4C1123.89 149.288 1125.94 151.08 1133.11 151.208V153H1096.24ZM1144.37 153V151.208C1151.28 151.08 1153.2 149.288 1153.2 143.4L1153.33 139.048V103.848C1153.33 98.216 1152.05 96.552 1147.95 96.552C1146.93 96.552 1146.42 96.68 1144.88 97.064L1144.5 95.272L1171.89 87.848L1171.76 143.4C1171.76 149.288 1173.81 151.08 1180.47 151.208V153H1144.37ZM1150.39 68.648C1150.39 62.504 1155.38 57.512 1161.52 57.512C1167.79 57.512 1172.66 62.504 1172.66 68.648C1172.66 74.664 1167.79 79.528 1161.65 79.528C1155.38 79.528 1150.39 74.664 1150.39 68.648ZM1179.86 153V151.208C1187.03 151.08 1189.2 149.288 1189.2 143.4V139.56V103.976C1189.2 98.216 1188.05 96.552 1183.95 96.552C1182.93 96.552 1182.29 96.68 1180.88 97.064L1180.5 95.272L1208.02 87.848L1207.89 100.008C1211.99 96.04 1213.65 94.632 1216.72 92.712C1220.82 90.024 1224.91 88.744 1229.52 88.744C1235.03 88.744 1239.63 90.536 1242.83 93.992C1246.03 97.448 1246.93 100.136 1246.93 108.328L1246.67 143.4C1246.67 149.288 1248.98 151.08 1256.02 151.208V153H1219.54V151.208C1225.94 151.08 1227.86 149.288 1227.86 143.4L1227.99 108.84C1227.99 103.08 1227.86 102.568 1226.45 100.52C1225.17 98.856 1222.87 97.832 1220.18 97.832C1216.47 97.832 1213.14 99.624 1207.89 104.744V143.4C1207.89 149.16 1210.07 151.08 1216.47 151.208V153H1179.86ZM1317.21 117.8L1277.53 117.672C1277.66 133.544 1284.7 143.016 1296.6 143.016C1299.54 143.016 1302.74 142.248 1305.56 140.712C1310.94 137.896 1313.11 135.208 1316.18 127.656L1318.1 128.04C1316.82 132.392 1315.67 136.104 1314.26 139.176C1310.04 148.392 1300.31 154.152 1288.41 154.152C1270.49 154.152 1258.46 140.968 1258.46 121.768C1258.46 102.056 1271.13 88.488 1289.56 88.488C1295.58 88.488 1301.08 90.024 1305.82 93.096C1313.37 97.832 1316.31 104.104 1317.21 117.8ZM1278.81 104.232C1278.42 106.28 1278.17 108.584 1277.66 111.272H1297.75C1297.24 103.336 1296.6 101.032 1294.55 97.832C1293.02 95.272 1290.58 93.864 1288.15 93.864C1283.8 93.864 1280.09 97.96 1278.81 104.232Z" fill="#1C2268"/>
<path d="M1550.96 28.7604C1551.32 27.8734 1552.68 27.8734 1553.04 28.7604C1554.49 32.3795 1557.35 38.6759 1560.84 42.1612C1564.32 45.6464 1570.62 48.5052 1574.24 49.9598C1575.13 50.3163 1575.13 51.6837 1574.24 52.0402C1570.62 53.4948 1564.32 56.3536 1560.84 59.8388C1557.35 63.3241 1554.49 69.6205 1553.04 73.2396C1552.68 74.1266 1551.32 74.1266 1550.96 73.2396C1549.51 69.6205 1546.65 63.3241 1543.16 59.8388C1539.68 56.3536 1533.38 53.4948 1529.76 52.0402C1528.87 51.6837 1528.87 50.3163 1529.76 49.9598C1533.38 48.5052 1539.68 45.6464 1543.16 42.1612C1546.65 38.6759 1549.51 32.3795 1550.96 28.7604Z" fill="#1C2268"/>
<path d="M564.079 124.108C569.77 125.743 573 127.613 573 129.6V138.8H572.954C571.596 144.99 538.877 149.948 498.595 149.996C500.176 148.427 500.857 146.313 500.857 144.5C500.857 142.003 499.566 138.931 496.408 137.505L496.097 137.372C491.803 135.646 485.754 132.875 481.285 129.71C486.673 129.897 492.267 130 498 130L501.819 129.985C520.804 129.84 538.058 128.615 551.062 126.667C555.952 125.934 560.355 125.08 564.079 124.108ZM450.436 127.415C456.888 128.214 464.158 128.852 472.004 129.294C472.576 129.99 473.16 130.644 473.758 131.242L474.261 131.729C479.573 136.736 488.601 140.826 493.859 142.939L493.98 142.994C495.189 143.601 495.148 145.542 493.859 146.061L492.797 146.494C490.69 147.366 488.136 148.498 485.511 149.835C459.133 149.151 437.424 146.34 428.022 142.579C433.362 140.381 441.714 136.466 446.739 131.729L447.242 131.242C448.353 130.131 449.421 128.828 450.436 127.415ZM431.918 124.109C435.287 124.989 439.205 125.766 443.524 126.447C443.349 126.637 443.175 126.823 442.999 126.999C439.007 130.991 431.417 134.678 425.964 136.939L424.903 137.372C424.18 137.663 423.548 138.037 423.002 138.472L423 138.399V129.2H423.045C423.447 127.363 426.612 125.634 431.918 124.109ZM564.078 98.1094C569.77 99.7443 573 101.614 573 103.601V112.801H572.954C572.046 116.938 557.127 120.523 535.306 122.462C534.857 122.502 534.406 122.541 533.951 122.579C533.384 122.627 532.813 122.674 532.237 122.72C531.793 122.755 531.347 122.789 530.897 122.823C530.336 122.866 529.77 122.908 529.2 122.948C528.705 122.983 528.208 123.017 527.707 123.051C527.101 123.091 526.491 123.131 525.877 123.169C525.428 123.197 524.976 123.223 524.522 123.25C523.925 123.285 523.324 123.32 522.72 123.353C522.199 123.381 521.675 123.407 521.148 123.434C520.529 123.465 519.906 123.496 519.279 123.524C518.757 123.548 518.233 123.57 517.706 123.592C517.134 123.616 516.559 123.64 515.981 123.662C515.424 123.683 514.863 123.702 514.301 123.722C513.653 123.744 513.003 123.767 512.35 123.786C511.922 123.799 511.492 123.81 511.062 123.821C510.343 123.841 509.62 123.861 508.895 123.877C508.268 123.891 507.639 123.901 507.008 123.913C506.451 123.923 505.893 123.936 505.333 123.944C504.663 123.954 503.99 123.959 503.315 123.967C502.764 123.973 502.21 123.981 501.655 123.985C500.444 123.994 499.226 124 498 124C496.783 124 495.573 123.994 494.37 123.985C493.594 123.98 492.821 123.969 492.051 123.96C491.599 123.954 491.149 123.951 490.699 123.944C490.081 123.935 489.465 123.922 488.851 123.91C488.222 123.898 487.596 123.888 486.973 123.874C486.446 123.862 485.921 123.847 485.397 123.833C484.737 123.816 484.08 123.799 483.426 123.779C482.876 123.763 482.329 123.743 481.783 123.725C481.171 123.704 480.561 123.683 479.954 123.66C479.346 123.637 478.741 123.61 478.139 123.585C477.599 123.562 477.063 123.539 476.528 123.515C476.05 123.493 475.574 123.469 475.1 123.445C472.265 119.367 469.76 114.062 468.061 109.964L467.628 108.903L467.495 108.592C466.069 105.434 462.997 104.143 460.5 104.143C458.003 104.143 454.931 105.434 453.505 108.592L453.372 108.903C451.98 112.368 449.905 116.976 447.494 120.974C432.665 118.884 423.278 115.888 423.006 112.55L423 112.4V103.2H423.045C423.448 101.363 426.613 99.6347 431.918 98.1104C435.508 99.0474 439.721 99.8711 444.379 100.583C458.307 102.712 477.243 104 498 104L501.819 103.985C520.804 103.84 538.058 102.615 551.062 100.667C555.951 99.9345 560.354 99.0811 564.078 98.1094ZM458.939 111.141C459.474 109.81 461.526 109.81 462.061 111.141C463.324 114.284 465.295 118.775 467.744 123.014C467.374 122.988 467.005 122.963 466.638 122.937C465.874 122.882 465.117 122.829 464.367 122.771C464.354 122.769 464.34 122.769 464.327 122.768C462.314 122.611 460.352 122.439 458.447 122.256C458.435 122.255 458.423 122.254 458.41 122.253C456.885 122.106 455.397 121.949 453.948 121.786C456.077 117.924 457.797 113.982 458.939 111.141ZM498 66C509.815 66 520.993 66.4229 530.935 67.1758C532.509 68.0995 533.925 69.0867 534.919 70.0811L535.154 70.3252C537.588 72.9209 539.961 77.9169 541.393 81.4775L541.517 81.7676C542.849 84.7169 545.711 85.9053 548 85.9053C550.362 85.9053 553.336 84.6394 554.607 81.4775L554.896 80.7715C556.2 77.6292 558.133 73.6436 560.168 71.1084C568.269 72.9609 573 75.1958 573 77.6006V86.8008H572.954C572.046 90.9384 557.127 94.5229 535.306 96.4619C534.857 96.5018 534.406 96.5406 533.951 96.5791C533.384 96.6271 532.813 96.674 532.237 96.7197C531.793 96.755 531.347 96.7893 530.897 96.8232C530.336 96.8657 529.77 96.9079 529.2 96.9482C528.705 96.9833 528.208 97.0173 527.707 97.0508C527.101 97.0913 526.491 97.1309 525.877 97.1689C525.428 97.1968 524.976 97.2234 524.522 97.25C523.925 97.2849 523.324 97.3199 522.72 97.3525C522.199 97.3807 521.675 97.4072 521.148 97.4336C520.529 97.4647 519.906 97.4958 519.279 97.5244C518.757 97.5483 518.233 97.5696 517.706 97.5918C517.134 97.6158 516.559 97.6401 515.981 97.6621C515.424 97.6834 514.863 97.7024 514.301 97.7217C513.653 97.7439 513.003 97.7665 512.35 97.7861C511.922 97.799 511.492 97.8096 511.062 97.8213C510.343 97.8408 509.62 97.8606 508.895 97.877C508.268 97.8911 507.639 97.9014 507.008 97.9131C506.451 97.9234 505.893 97.9359 505.333 97.9443C504.663 97.9544 503.99 97.9595 503.315 97.9668C502.764 97.9728 502.21 97.9812 501.655 97.9854C500.444 97.9944 499.226 98 498 98C496.783 98 495.573 97.9942 494.37 97.9854C493.594 97.9796 492.821 97.9693 492.051 97.96C491.599 97.9545 491.149 97.9511 490.699 97.9443C490.081 97.9351 489.465 97.9217 488.851 97.9102C488.222 97.8983 487.596 97.8882 486.973 97.874C486.446 97.862 485.921 97.8467 485.397 97.833C484.737 97.8157 484.08 97.7992 483.426 97.7793C482.876 97.7626 482.329 97.7432 481.783 97.7246C481.171 97.7037 480.561 97.6834 479.954 97.6602C479.346 97.6369 478.741 97.6105 478.139 97.585C477.599 97.5621 477.063 97.5393 476.528 97.5146C475.952 97.4881 475.379 97.4603 474.809 97.4316C474.237 97.4029 473.667 97.3736 473.102 97.3428C472.557 97.3131 472.015 97.2815 471.477 97.25C470.938 97.2185 470.403 97.1867 469.87 97.1533C469.273 97.1159 468.68 97.0778 468.091 97.0381C467.604 97.0053 467.119 96.9709 466.638 96.9365C465.874 96.8821 465.117 96.8288 464.367 96.7705C464.354 96.7695 464.34 96.7686 464.327 96.7676C462.314 96.6108 460.352 96.4391 458.447 96.2559C458.435 96.2547 458.423 96.2541 458.41 96.2529C437.405 94.23 423.34 90.6465 423.006 86.5498L423 86.4004V77.2002H423.045C424.409 70.9789 457.445 66 498 66ZM541.083 68.1045C545.711 68.6078 549.955 69.1895 553.732 69.8379C551.68 73.0563 550.032 76.7703 549.04 79.2393L548.962 79.3955C548.517 80.1231 547.294 80.0709 546.96 79.2393C545.783 76.3111 543.686 71.6309 541.083 68.1045Z" fill="white"/>
<path d="M546.96 34.7604C547.316 33.8733 548.684 33.8733 549.04 34.7604C550.495 38.3794 553.354 44.6758 556.839 48.1611C560.324 51.6464 566.621 54.5052 570.24 55.9597C571.127 56.3163 571.127 57.6836 570.24 58.0402C566.621 59.4947 560.324 62.3535 556.839 65.8388C553.354 69.324 550.495 75.6205 549.04 79.2395C548.684 80.1266 547.316 80.1266 546.96 79.2395C545.505 75.6205 542.646 69.324 539.161 65.8388C535.676 62.3535 529.38 59.4947 525.761 58.0402C524.873 57.6836 524.873 56.3163 525.761 55.9597C529.38 54.5052 535.676 51.6464 539.161 48.1611C542.646 44.6758 545.505 38.3794 546.96 34.7604Z" fill="#1C2268"/>
<path d="M458.94 111.141C459.474 109.81 461.525 109.81 462.06 111.141C464.242 116.569 468.53 126.014 473.758 131.242C478.986 136.47 488.431 140.758 493.859 142.94C495.19 143.474 495.19 145.526 493.859 146.06C488.431 148.242 478.986 152.53 473.758 157.758C468.53 162.986 464.242 172.431 462.06 177.859C461.525 179.19 459.474 179.19 458.94 177.859C456.758 172.431 452.469 162.986 447.242 157.758C442.014 152.53 432.569 148.242 427.141 146.06C425.81 145.526 425.81 143.474 427.141 142.94C432.569 140.758 442.014 136.47 447.242 131.242C452.469 126.014 456.758 116.569 458.94 111.141Z" fill="#1C2268"/>
<path d="M487.733 233.727C487.532 231.703 486.638 230.093 485.052 228.898C483.466 227.702 481.471 227.104 479.068 227.104C477.376 227.104 475.884 227.394 474.594 227.974C473.315 228.554 472.309 229.359 471.575 230.389C470.853 231.407 470.492 232.567 470.492 233.869C470.492 234.828 470.699 235.669 471.114 236.391C471.528 237.113 472.084 237.734 472.783 238.255C473.493 238.764 474.274 239.202 475.127 239.569C475.991 239.936 476.861 240.244 477.737 240.492L481.572 241.593C482.732 241.913 483.892 242.321 485.052 242.818C486.212 243.315 487.271 243.943 488.23 244.7C489.201 245.446 489.976 246.363 490.556 247.452C491.148 248.53 491.444 249.826 491.444 251.341C491.444 253.282 490.941 255.028 489.935 256.579C488.929 258.129 487.484 259.361 485.602 260.272C483.72 261.172 481.465 261.621 478.837 261.621C476.363 261.621 474.215 261.213 472.392 260.396C470.569 259.568 469.137 258.425 468.095 256.969C467.054 255.513 466.468 253.827 466.337 251.909H469.747C469.865 253.341 470.338 254.555 471.167 255.549C471.996 256.543 473.073 257.301 474.399 257.822C475.724 258.331 477.204 258.585 478.837 258.585C480.649 258.585 482.258 258.283 483.667 257.68C485.087 257.064 486.2 256.212 487.005 255.123C487.822 254.022 488.23 252.744 488.23 251.288C488.23 250.057 487.911 249.027 487.271 248.198C486.632 247.358 485.738 246.653 484.59 246.085C483.454 245.517 482.134 245.014 480.631 244.576L476.281 243.298C473.428 242.445 471.214 241.268 469.64 239.764C468.066 238.261 467.278 236.343 467.278 234.011C467.278 232.058 467.799 230.342 468.841 228.862C469.895 227.371 471.315 226.211 473.102 225.382C474.902 224.542 476.92 224.121 479.157 224.121C481.418 224.121 483.418 224.536 485.158 225.364C486.899 226.193 488.278 227.335 489.296 228.791C490.325 230.235 490.876 231.881 490.947 233.727H487.733ZM509.519 233.727V236.479H496.504V233.727H509.519ZM500.57 227.193H503.749V253.88C503.749 255.016 503.944 255.91 504.335 256.561C504.725 257.2 505.234 257.656 505.862 257.928C506.489 258.189 507.158 258.319 507.868 258.319C508.282 258.319 508.637 258.295 508.933 258.248C509.229 258.189 509.49 258.129 509.715 258.07L510.389 260.929C510.082 261.047 509.703 261.154 509.253 261.249C508.803 261.355 508.247 261.408 507.584 261.408C506.424 261.408 505.305 261.154 504.228 260.645C503.163 260.136 502.287 259.378 501.6 258.372C500.914 257.366 500.57 256.117 500.57 254.626V227.193ZM527.004 261.568C524.649 261.568 522.565 260.97 520.754 259.775C518.955 258.579 517.546 256.928 516.528 254.821C515.51 252.702 515.001 250.258 515.001 247.488C515.001 244.694 515.51 242.238 516.528 240.119C517.546 237.989 518.955 236.331 520.754 235.148C522.565 233.952 524.649 233.354 527.004 233.354C529.36 233.354 531.437 233.952 533.236 235.148C535.036 236.343 536.444 238 537.462 240.119C538.492 242.238 539.007 244.694 539.007 247.488C539.007 250.258 538.498 252.702 537.48 254.821C536.462 256.928 535.047 258.579 533.236 259.775C531.437 260.97 529.36 261.568 527.004 261.568ZM527.004 258.674C528.898 258.674 530.502 258.165 531.816 257.147C533.13 256.129 534.124 254.774 534.799 253.081C535.485 251.388 535.829 249.524 535.829 247.488C535.829 245.452 535.485 243.582 534.799 241.877C534.124 240.173 533.13 238.805 531.816 237.776C530.502 236.746 528.898 236.231 527.004 236.231C525.122 236.231 523.518 236.746 522.192 237.776C520.878 238.805 519.878 240.173 519.192 241.877C518.517 243.582 518.18 245.452 518.18 247.488C518.18 249.524 518.517 251.388 519.192 253.081C519.878 254.774 520.878 256.129 522.192 257.147C523.506 258.165 525.11 258.674 527.004 258.674ZM545.945 261V233.727H549.017V237.918H549.248C549.792 236.545 550.739 235.438 552.089 234.597C553.45 233.745 554.989 233.319 556.705 233.319C556.965 233.319 557.255 233.325 557.575 233.337C557.895 233.348 558.161 233.36 558.374 233.372V236.586C558.232 236.562 557.983 236.527 557.628 236.479C557.273 236.432 556.888 236.408 556.474 236.408C555.054 236.408 553.787 236.71 552.674 237.314C551.574 237.906 550.704 238.728 550.064 239.782C549.425 240.835 549.106 242.037 549.106 243.386V261H545.945ZM573.964 261.568C571.419 261.568 569.217 260.976 567.358 259.793C565.5 258.597 564.062 256.946 563.044 254.839C562.038 252.72 561.535 250.281 561.535 247.523C561.535 244.777 562.038 242.339 563.044 240.208C564.062 238.066 565.464 236.391 567.252 235.183C569.051 233.964 571.129 233.354 573.484 233.354C574.964 233.354 576.39 233.627 577.763 234.171C579.136 234.704 580.367 235.527 581.456 236.639C582.557 237.74 583.427 239.131 584.066 240.812C584.706 242.481 585.025 244.458 585.025 246.742V248.305H563.718V245.517H581.794C581.794 243.765 581.439 242.191 580.728 240.794C580.03 239.385 579.053 238.273 577.799 237.456C576.556 236.639 575.118 236.231 573.484 236.231C571.756 236.231 570.235 236.692 568.921 237.616C567.607 238.539 566.577 239.758 565.831 241.273C565.098 242.789 564.725 244.446 564.713 246.245V247.914C564.713 250.08 565.086 251.974 565.831 253.596C566.589 255.206 567.66 256.455 569.045 257.342C570.43 258.23 572.07 258.674 573.964 258.674C575.254 258.674 576.384 258.473 577.355 258.07C578.337 257.668 579.16 257.129 579.823 256.455C580.498 255.768 581.007 255.016 581.35 254.2L584.351 255.176C583.936 256.324 583.256 257.384 582.309 258.354C581.374 259.325 580.202 260.106 578.793 260.698C577.396 261.278 575.786 261.568 573.964 261.568ZM613.67 261.621C612.024 261.621 610.521 261.302 609.16 260.663C607.798 260.012 606.715 259.076 605.91 257.857C605.105 256.626 604.703 255.135 604.703 253.383C604.703 252.033 604.958 250.897 605.467 249.974C605.976 249.05 606.698 248.293 607.633 247.701C608.568 247.109 609.675 246.642 610.953 246.298C612.231 245.955 613.64 245.689 615.179 245.499C616.706 245.31 617.996 245.144 619.05 245.002C620.115 244.86 620.926 244.635 621.482 244.327C622.039 244.02 622.317 243.522 622.317 242.836V242.197C622.317 240.338 621.76 238.876 620.648 237.811C619.547 236.734 617.961 236.195 615.889 236.195C613.924 236.195 612.32 236.627 611.077 237.491C609.846 238.356 608.982 239.374 608.485 240.545L605.484 239.462C606.1 237.971 606.952 236.781 608.041 235.893C609.13 234.994 610.349 234.349 611.699 233.958C613.048 233.556 614.415 233.354 615.8 233.354C616.842 233.354 617.925 233.491 619.05 233.763C620.186 234.035 621.239 234.509 622.21 235.183C623.181 235.846 623.968 236.775 624.572 237.971C625.175 239.155 625.477 240.658 625.477 242.481V261H622.317V256.685H622.121C621.743 257.49 621.18 258.272 620.435 259.029C619.689 259.787 618.754 260.408 617.629 260.893C616.505 261.379 615.185 261.621 613.67 261.621ZM614.096 258.727C615.777 258.727 617.233 258.354 618.464 257.609C619.695 256.863 620.642 255.875 621.305 254.643C621.979 253.401 622.317 252.033 622.317 250.542V246.6C622.08 246.825 621.683 247.026 621.127 247.204C620.583 247.381 619.949 247.541 619.227 247.683C618.517 247.813 617.807 247.926 617.097 248.021C616.386 248.115 615.747 248.198 615.179 248.269C613.64 248.459 612.326 248.754 611.237 249.157C610.148 249.559 609.314 250.116 608.734 250.826C608.154 251.524 607.864 252.424 607.864 253.525C607.864 255.182 608.455 256.466 609.639 257.378C610.823 258.277 612.308 258.727 614.096 258.727ZM637.045 243.955V261H633.884V233.727H636.956V238.006H637.24C637.88 236.61 638.874 235.491 640.223 234.651C641.585 233.798 643.265 233.372 645.266 233.372C647.101 233.372 648.71 233.757 650.095 234.526C651.492 235.284 652.575 236.402 653.345 237.882C654.126 239.362 654.517 241.179 654.517 243.333V261H651.356V243.528C651.356 241.291 650.729 239.522 649.474 238.219C648.231 236.917 646.562 236.266 644.467 236.266C643.035 236.266 641.762 236.574 640.649 237.19C639.537 237.805 638.655 238.693 638.004 239.853C637.365 241.001 637.045 242.368 637.045 243.955ZM672.658 261.568C670.421 261.568 668.462 260.976 666.781 259.793C665.1 258.609 663.787 256.958 662.84 254.839C661.904 252.72 661.437 250.252 661.437 247.435C661.437 244.629 661.904 242.173 662.84 240.066C663.787 237.947 665.106 236.302 666.799 235.13C668.492 233.946 670.463 233.354 672.712 233.354C674.369 233.354 675.748 233.65 676.849 234.242C677.95 234.822 678.832 235.544 679.494 236.408C680.157 237.272 680.672 238.113 681.039 238.93H681.323V224.636H684.502V261H681.412V255.94H681.039C680.672 256.768 680.151 257.621 679.477 258.496C678.802 259.361 677.908 260.089 676.796 260.68C675.695 261.272 674.316 261.568 672.658 261.568ZM673.031 258.674C674.795 258.674 676.298 258.195 677.541 257.236C678.784 256.265 679.731 254.933 680.382 253.241C681.045 251.536 681.377 249.583 681.377 247.381C681.377 245.203 681.051 243.28 680.4 241.611C679.749 239.93 678.802 238.616 677.559 237.669C676.316 236.71 674.807 236.231 673.031 236.231C671.208 236.231 669.67 236.728 668.415 237.722C667.172 238.705 666.225 240.036 665.574 241.717C664.935 243.398 664.615 245.286 664.615 247.381C664.615 249.5 664.941 251.412 665.592 253.116C666.243 254.821 667.19 256.176 668.433 257.183C669.687 258.177 671.22 258.674 673.031 258.674ZM718.22 261.568C715.781 261.568 713.656 260.959 711.845 259.739C710.046 258.52 708.649 256.851 707.655 254.732C706.661 252.613 706.163 250.199 706.163 247.488C706.163 244.754 706.667 242.321 707.673 240.19C708.691 238.06 710.099 236.391 711.899 235.183C713.698 233.964 715.787 233.354 718.166 233.354C719.989 233.354 721.64 233.71 723.12 234.42C724.6 235.118 725.819 236.107 726.778 237.385C727.748 238.652 728.358 240.131 728.607 241.824H725.411C725.079 240.285 724.28 238.971 723.014 237.882C721.759 236.781 720.161 236.231 718.22 236.231C716.479 236.231 714.941 236.704 713.603 237.651C712.265 238.586 711.218 239.894 710.46 241.575C709.715 243.244 709.342 245.18 709.342 247.381C709.342 249.595 709.709 251.554 710.443 253.259C711.176 254.951 712.206 256.277 713.532 257.236C714.87 258.195 716.432 258.674 718.22 258.674C719.427 258.674 720.528 258.449 721.522 257.999C722.528 257.538 723.369 256.887 724.043 256.046C724.73 255.206 725.192 254.205 725.428 253.045H728.624C728.388 254.691 727.802 256.159 726.867 257.449C725.943 258.727 724.742 259.733 723.262 260.467C721.794 261.201 720.113 261.568 718.22 261.568ZM745.998 261.568C743.643 261.568 741.559 260.97 739.748 259.775C737.949 258.579 736.54 256.928 735.522 254.821C734.504 252.702 733.995 250.258 733.995 247.488C733.995 244.694 734.504 242.238 735.522 240.119C736.54 237.989 737.949 236.331 739.748 235.148C741.559 233.952 743.643 233.354 745.998 233.354C748.354 233.354 750.431 233.952 752.231 235.148C754.03 236.343 755.438 238 756.456 240.119C757.486 242.238 758.001 244.694 758.001 247.488C758.001 250.258 757.492 252.702 756.474 254.821C755.456 256.928 754.042 258.579 752.231 259.775C750.431 260.97 748.354 261.568 745.998 261.568ZM745.998 258.674C747.892 258.674 749.496 258.165 750.81 257.147C752.124 256.129 753.118 254.774 753.793 253.081C754.48 251.388 754.823 249.524 754.823 247.488C754.823 245.452 754.48 243.582 753.793 241.877C753.118 240.173 752.124 238.805 750.81 237.776C749.496 236.746 747.892 236.231 745.998 236.231C744.116 236.231 742.512 236.746 741.187 237.776C739.873 238.805 738.872 240.173 738.186 241.877C737.511 243.582 737.174 245.452 737.174 247.488C737.174 249.524 737.511 251.388 738.186 253.081C738.872 254.774 739.873 256.129 741.187 257.147C742.5 258.165 744.104 258.674 745.998 258.674ZM764.939 261V233.727H768.011V237.918H768.295C768.84 236.509 769.745 235.402 771.012 234.597C772.29 233.781 773.823 233.372 775.61 233.372C777.492 233.372 779.037 233.816 780.245 234.704C781.464 235.58 782.375 236.787 782.979 238.326H783.21C783.825 236.811 784.826 235.609 786.21 234.722C787.607 233.822 789.3 233.372 791.289 233.372C793.822 233.372 795.822 234.171 797.29 235.769C798.758 237.355 799.492 239.675 799.492 242.729V261H796.331V242.729C796.331 240.575 795.781 238.959 794.68 237.882C793.579 236.805 792.129 236.266 790.33 236.266C788.246 236.266 786.643 236.906 785.518 238.184C784.393 239.462 783.831 241.084 783.831 243.049V261H780.6V242.445C780.6 240.599 780.085 239.107 779.055 237.971C778.025 236.835 776.575 236.266 774.705 236.266C773.45 236.266 772.32 236.574 771.313 237.19C770.319 237.805 769.532 238.663 768.952 239.764C768.384 240.853 768.1 242.108 768.1 243.528V261H764.939ZM807.859 271.227V233.727H810.931V238.93H811.304C811.682 238.113 812.203 237.278 812.866 236.426C813.529 235.562 814.405 234.834 815.494 234.242C816.595 233.65 817.98 233.354 819.649 233.354C821.898 233.354 823.863 233.946 825.544 235.13C827.236 236.302 828.55 237.947 829.486 240.066C830.433 242.173 830.906 244.629 830.906 247.435C830.906 250.252 830.433 252.72 829.486 254.839C828.55 256.958 827.236 258.609 825.544 259.793C823.863 260.976 821.91 261.568 819.684 261.568C818.039 261.568 816.66 261.272 815.547 260.68C814.446 260.089 813.553 259.361 812.866 258.496C812.191 257.621 811.671 256.768 811.304 255.94H811.02V271.227H807.859ZM810.984 247.381C810.984 249.583 811.31 251.536 811.961 253.241C812.624 254.933 813.571 256.265 814.802 257.236C816.044 258.195 817.548 258.674 819.312 258.674C821.123 258.674 822.65 258.177 823.892 257.183C825.147 256.176 826.1 254.821 826.751 253.116C827.414 251.412 827.745 249.5 827.745 247.381C827.745 245.286 827.42 243.398 826.769 241.717C826.13 240.036 825.183 238.705 823.928 237.722C822.673 236.728 821.134 236.231 819.312 236.231C817.536 236.231 816.027 236.71 814.784 237.669C813.541 238.616 812.594 239.93 811.943 241.611C811.304 243.28 810.984 245.203 810.984 247.381ZM841 224.636V261H837.84V224.636H841ZM860.389 261.568C857.844 261.568 855.643 260.976 853.784 259.793C851.926 258.597 850.488 256.946 849.47 254.839C848.463 252.72 847.96 250.281 847.96 247.523C847.96 244.777 848.463 242.339 849.47 240.208C850.488 238.066 851.89 236.391 853.678 235.183C855.477 233.964 857.554 233.354 859.91 233.354C861.39 233.354 862.816 233.627 864.189 234.171C865.562 234.704 866.793 235.527 867.882 236.639C868.983 237.74 869.853 239.131 870.492 240.812C871.131 242.481 871.451 244.458 871.451 246.742V248.305H850.144V245.517H868.22C868.22 243.765 867.864 242.191 867.154 240.794C866.456 239.385 865.479 238.273 864.225 237.456C862.982 236.639 861.543 236.231 859.91 236.231C858.182 236.231 856.661 236.692 855.347 237.616C854.033 238.539 853.003 239.758 852.257 241.273C851.523 242.789 851.15 244.446 851.139 246.245V247.914C851.139 250.08 851.511 251.974 852.257 253.596C853.015 255.206 854.086 256.455 855.471 257.342C856.856 258.23 858.495 258.674 860.389 258.674C861.68 258.674 862.81 258.473 863.781 258.07C864.763 257.668 865.586 257.129 866.249 256.455C866.923 255.768 867.432 255.016 867.776 254.2L870.776 255.176C870.362 256.324 869.681 257.384 868.734 258.354C867.799 259.325 866.627 260.106 865.219 260.698C863.822 261.278 862.212 261.568 860.389 261.568ZM889.158 233.727V236.479H876.143V233.727H889.158ZM880.209 227.193H883.387V253.88C883.387 255.016 883.583 255.91 883.973 256.561C884.364 257.2 884.873 257.656 885.5 257.928C886.128 258.189 886.796 258.319 887.507 258.319C887.921 258.319 888.276 258.295 888.572 258.248C888.868 258.189 889.128 258.129 889.353 258.07L890.028 260.929C889.72 261.047 889.341 261.154 888.892 261.249C888.442 261.355 887.885 261.408 887.223 261.408C886.063 261.408 884.944 261.154 883.867 260.645C882.801 260.136 881.925 259.378 881.239 258.372C880.552 257.366 880.209 256.117 880.209 254.626V227.193ZM907.069 261.568C904.524 261.568 902.322 260.976 900.464 259.793C898.605 258.597 897.167 256.946 896.149 254.839C895.143 252.72 894.64 250.281 894.64 247.523C894.64 244.777 895.143 242.339 896.149 240.208C897.167 238.066 898.57 236.391 900.357 235.183C902.157 233.964 904.234 233.354 906.59 233.354C908.069 233.354 909.496 233.627 910.869 234.171C912.242 234.704 913.473 235.527 914.562 236.639C915.663 237.74 916.533 239.131 917.172 240.812C917.811 242.481 918.131 244.458 918.131 246.742V248.305H896.824V245.517H914.899C914.899 243.765 914.544 242.191 913.834 240.794C913.136 239.385 912.159 238.273 910.904 237.456C909.661 236.639 908.223 236.231 906.59 236.231C904.861 236.231 903.34 236.692 902.026 237.616C900.712 238.539 899.683 239.758 898.937 241.273C898.203 242.789 897.83 244.446 897.818 246.245V247.914C897.818 250.08 898.191 251.974 898.937 253.596C899.694 255.206 900.766 256.455 902.151 257.342C903.536 258.23 905.175 258.674 907.069 258.674C908.359 258.674 909.49 258.473 910.46 258.07C911.443 257.668 912.265 257.129 912.928 256.455C913.603 255.768 914.112 255.016 914.455 254.2L917.456 255.176C917.042 256.324 916.361 257.384 915.414 258.354C914.479 259.325 913.307 260.106 911.899 260.698C910.502 261.278 908.892 261.568 907.069 261.568ZM941.36 271.227C940.732 271.227 940.146 271.168 939.602 271.05C939.057 270.931 938.625 270.801 938.306 270.659L939.158 267.871C940.235 268.203 941.194 268.321 942.034 268.227C942.875 268.144 943.621 267.765 944.272 267.09C944.923 266.427 945.503 265.409 946.012 264.036L947.006 261.266L936.974 233.727H940.401L948.497 256.827H948.746L956.843 233.727H960.269L948.728 265.315C948.243 266.629 947.645 267.723 946.935 268.599C946.225 269.487 945.402 270.144 944.467 270.57C943.544 271.008 942.508 271.227 941.36 271.227ZM976.076 261.568C973.721 261.568 971.638 260.97 969.826 259.775C968.027 258.579 966.619 256.928 965.601 254.821C964.583 252.702 964.074 250.258 964.074 247.488C964.074 244.694 964.583 242.238 965.601 240.119C966.619 237.989 968.027 236.331 969.826 235.148C971.638 233.952 973.721 233.354 976.076 233.354C978.432 233.354 980.509 233.952 982.309 235.148C984.108 236.343 985.517 238 986.535 240.119C987.564 242.238 988.079 244.694 988.079 247.488C988.079 250.258 987.57 252.702 986.552 254.821C985.534 256.928 984.12 258.579 982.309 259.775C980.509 260.97 978.432 261.568 976.076 261.568ZM976.076 258.674C977.97 258.674 979.574 258.165 980.888 257.147C982.202 256.129 983.196 254.774 983.871 253.081C984.558 251.388 984.901 249.524 984.901 247.488C984.901 245.452 984.558 243.582 983.871 241.877C983.196 240.173 982.202 238.805 980.888 237.776C979.574 236.746 977.97 236.231 976.076 236.231C974.194 236.231 972.59 236.746 971.265 237.776C969.951 238.805 968.95 240.173 968.264 241.877C967.589 243.582 967.252 245.452 967.252 247.488C967.252 249.524 967.589 251.388 968.264 253.081C968.95 254.774 969.951 256.129 971.265 257.147C972.579 258.165 974.182 258.674 976.076 258.674ZM1012.35 250.577V233.727H1015.51V261H1012.35V256.472H1012.1C1011.46 257.869 1010.45 259.035 1009.06 259.97C1007.68 260.893 1005.98 261.355 1003.98 261.355C1002.24 261.355 1000.7 260.976 999.35 260.219C998 259.449 996.941 258.325 996.171 256.845C995.402 255.366 995.017 253.549 995.017 251.394V233.727H998.178V251.199C998.178 253.33 998.805 255.046 1000.06 256.348C1001.31 257.638 1002.92 258.283 1004.89 258.283C1006.12 258.283 1007.3 257.987 1008.44 257.396C1009.58 256.804 1010.51 255.94 1011.25 254.803C1011.98 253.655 1012.35 252.246 1012.35 250.577ZM1023.87 261V233.727H1026.95V237.918H1027.18C1027.72 236.545 1028.67 235.438 1030.02 234.597C1031.38 233.745 1032.92 233.319 1034.63 233.319C1034.9 233.319 1035.19 233.325 1035.5 233.337C1035.82 233.348 1036.09 233.36 1036.3 233.372V236.586C1036.16 236.562 1035.91 236.527 1035.56 236.479C1035.2 236.432 1034.82 236.408 1034.4 236.408C1032.98 236.408 1031.72 236.71 1030.6 237.314C1029.5 237.906 1028.63 238.728 1027.99 239.782C1027.35 240.835 1027.04 242.037 1027.04 243.386V261H1023.87ZM1066.36 261.568C1064 261.568 1061.92 260.97 1060.11 259.775C1058.31 258.579 1056.9 256.928 1055.88 254.821C1054.87 252.702 1054.36 250.258 1054.36 247.488C1054.36 244.694 1054.87 242.238 1055.88 240.119C1056.9 237.989 1058.31 236.331 1060.11 235.148C1061.92 233.952 1064 233.354 1066.36 233.354C1068.72 233.354 1070.79 233.952 1072.59 235.148C1074.39 236.343 1075.8 238 1076.82 240.119C1077.85 242.238 1078.36 244.694 1078.36 247.488C1078.36 250.258 1077.85 252.702 1076.84 254.821C1075.82 256.928 1074.4 258.579 1072.59 259.775C1070.79 260.97 1068.72 261.568 1066.36 261.568ZM1066.36 258.674C1068.25 258.674 1069.86 258.165 1071.17 257.147C1072.49 256.129 1073.48 254.774 1074.15 253.081C1074.84 251.388 1075.18 249.524 1075.18 247.488C1075.18 245.452 1074.84 243.582 1074.15 241.877C1073.48 240.173 1072.49 238.805 1071.17 237.776C1069.86 236.746 1068.25 236.231 1066.36 236.231C1064.48 236.231 1062.87 236.746 1061.55 237.776C1060.23 238.805 1059.23 240.173 1058.55 241.877C1057.87 243.582 1057.54 245.452 1057.54 247.488C1057.54 249.524 1057.87 251.388 1058.55 253.081C1059.23 254.774 1060.23 256.129 1061.55 257.147C1062.86 258.165 1064.47 258.674 1066.36 258.674ZM1090.43 261L1082.19 233.727H1085.53L1091.99 256.224H1092.22L1098.67 233.727H1102.02L1108.41 256.17H1108.66L1115.13 233.727H1118.46L1110.23 261H1106.96L1100.49 238.646H1100.16L1093.69 261H1090.43ZM1127.77 243.955V261H1124.61V233.727H1127.68V238.006H1127.96C1128.6 236.61 1129.6 235.491 1130.95 234.651C1132.31 233.798 1133.99 233.372 1135.99 233.372C1137.82 233.372 1139.43 233.757 1140.82 234.526C1142.21 235.284 1143.3 236.402 1144.07 237.882C1144.85 239.362 1145.24 241.179 1145.24 243.333V261H1142.08V243.528C1142.08 241.291 1141.45 239.522 1140.2 238.219C1138.95 236.917 1137.28 236.266 1135.19 236.266C1133.76 236.266 1132.48 236.574 1131.37 237.19C1130.26 237.805 1129.38 238.693 1128.73 239.853C1128.09 241.001 1127.77 242.368 1127.77 243.955ZM1178.85 233.727V236.479H1165.44V233.727H1178.85ZM1169.63 261V229.732C1169.63 228.264 1169.97 227.027 1170.64 226.021C1171.33 225.015 1172.22 224.252 1173.32 223.731C1174.43 223.21 1175.59 222.95 1176.82 222.95C1177.65 222.95 1178.34 223.021 1178.88 223.163C1179.44 223.293 1179.88 223.423 1180.2 223.553L1179.27 226.323C1179.04 226.252 1178.75 226.169 1178.4 226.075C1178.06 225.98 1177.63 225.933 1177.11 225.933C1175.73 225.933 1174.67 226.317 1173.93 227.087C1173.18 227.856 1172.81 228.957 1172.81 230.389L1172.79 261H1169.63ZM1185.19 261V233.727H1188.37V261H1185.19ZM1186.81 229.04C1186.15 229.04 1185.6 228.821 1185.14 228.383C1184.67 227.933 1184.44 227.394 1184.44 226.767C1184.44 226.14 1184.67 225.607 1185.14 225.169C1185.6 224.719 1186.15 224.494 1186.81 224.494C1187.46 224.494 1188.01 224.719 1188.47 225.169C1188.94 225.607 1189.17 226.14 1189.17 226.767C1189.17 227.394 1188.94 227.933 1188.47 228.383C1188.01 228.821 1187.46 229.04 1186.81 229.04ZM1207.13 271.795C1205.27 271.795 1203.65 271.553 1202.25 271.067C1200.85 270.594 1199.67 269.943 1198.71 269.114C1197.76 268.286 1197.01 267.357 1196.48 266.327L1199.07 264.622C1199.46 265.309 1199.98 265.983 1200.63 266.646C1201.3 267.309 1202.15 267.86 1203.21 268.298C1204.27 268.736 1205.58 268.955 1207.13 268.955C1209.55 268.955 1211.49 268.351 1212.97 267.143C1214.46 265.936 1215.21 264.06 1215.21 261.515V255.371H1214.93C1214.56 256.2 1214.03 257.029 1213.35 257.857C1212.66 258.674 1211.76 259.355 1210.65 259.899C1209.55 260.444 1208.18 260.716 1206.55 260.716C1204.37 260.716 1202.43 260.177 1200.74 259.1C1199.06 258.023 1197.73 256.484 1196.76 254.484C1195.8 252.471 1195.32 250.074 1195.32 247.293C1195.32 244.535 1195.79 242.108 1196.73 240.013C1197.67 237.918 1198.99 236.284 1200.69 235.112C1202.38 233.94 1204.35 233.354 1206.6 233.354C1208.27 233.354 1209.65 233.65 1210.75 234.242C1211.85 234.822 1212.74 235.544 1213.4 236.408C1214.07 237.272 1214.6 238.113 1214.98 238.93H1215.3V233.727H1218.39V261.71C1218.39 264.018 1217.9 265.918 1216.91 267.41C1215.93 268.901 1214.59 270.002 1212.9 270.712C1211.21 271.434 1209.29 271.795 1207.13 271.795ZM1206.92 257.822C1208.67 257.822 1210.17 257.402 1211.41 256.561C1212.65 255.709 1213.61 254.49 1214.27 252.903C1214.93 251.317 1215.26 249.429 1215.26 247.239C1215.26 245.109 1214.94 243.221 1214.29 241.575C1213.64 239.918 1212.69 238.616 1211.45 237.669C1210.21 236.71 1208.71 236.231 1206.92 236.231C1205.1 236.231 1203.56 236.722 1202.3 237.705C1201.05 238.687 1200.1 240.013 1199.46 241.682C1198.82 243.339 1198.5 245.192 1198.5 247.239C1198.5 249.323 1198.83 251.163 1199.48 252.761C1200.13 254.348 1201.08 255.59 1202.34 256.49C1203.59 257.378 1205.12 257.822 1206.92 257.822ZM1244.09 250.577V233.727H1247.25V261H1244.09V256.472H1243.84C1243.2 257.869 1242.19 259.035 1240.8 259.97C1239.42 260.893 1237.72 261.355 1235.72 261.355C1233.98 261.355 1232.44 260.976 1231.09 260.219C1229.74 259.449 1228.68 258.325 1227.91 256.845C1227.14 255.366 1226.76 253.549 1226.76 251.394V233.727H1229.92V251.199C1229.92 253.33 1230.54 255.046 1231.8 256.348C1233.05 257.638 1234.66 258.283 1236.63 258.283C1237.86 258.283 1239.04 257.987 1240.18 257.396C1241.32 256.804 1242.25 255.94 1242.98 254.803C1243.72 253.655 1244.09 252.246 1244.09 250.577ZM1255.61 261V233.727H1258.68V237.918H1258.92C1259.46 236.545 1260.41 235.438 1261.76 234.597C1263.12 233.745 1264.66 233.319 1266.37 233.319C1266.63 233.319 1266.92 233.325 1267.24 233.337C1267.56 233.348 1267.83 233.36 1268.04 233.372V236.586C1267.9 236.562 1267.65 236.527 1267.3 236.479C1266.94 236.432 1266.56 236.408 1266.14 236.408C1264.72 236.408 1263.46 236.71 1262.34 237.314C1261.24 237.906 1260.37 238.728 1259.73 239.782C1259.09 240.835 1258.77 242.037 1258.77 243.386V261H1255.61ZM1283.63 261.568C1281.09 261.568 1278.88 260.976 1277.03 259.793C1275.17 258.597 1273.73 256.946 1272.71 254.839C1271.71 252.72 1271.2 250.281 1271.2 247.523C1271.2 244.777 1271.71 242.339 1272.71 240.208C1273.73 238.066 1275.13 236.391 1276.92 235.183C1278.72 233.964 1280.8 233.354 1283.15 233.354C1284.63 233.354 1286.06 233.627 1287.43 234.171C1288.8 234.704 1290.04 235.527 1291.12 236.639C1292.23 237.74 1293.1 239.131 1293.73 240.812C1294.37 242.481 1294.69 244.458 1294.69 246.742V248.305H1273.39V245.517H1291.46C1291.46 243.765 1291.11 242.191 1290.4 240.794C1289.7 239.385 1288.72 238.273 1287.47 237.456C1286.22 236.639 1284.79 236.231 1283.15 236.231C1281.42 236.231 1279.9 236.692 1278.59 237.616C1277.27 238.539 1276.25 239.758 1275.5 241.273C1274.77 242.789 1274.39 244.446 1274.38 246.245V247.914C1274.38 250.08 1274.75 251.974 1275.5 253.596C1276.26 255.206 1277.33 256.455 1278.71 257.342C1280.1 258.23 1281.74 258.674 1283.63 258.674C1284.92 258.674 1286.05 258.473 1287.02 258.07C1288.01 257.668 1288.83 257.129 1289.49 256.455C1290.17 255.768 1290.67 255.016 1291.02 254.2L1294.02 255.176C1293.6 256.324 1292.92 257.384 1291.98 258.354C1291.04 259.325 1289.87 260.106 1288.46 260.698C1287.06 261.278 1285.45 261.568 1283.63 261.568ZM1326.37 261.568C1323.94 261.568 1321.81 260.959 1320 259.739C1318.2 258.52 1316.8 256.851 1315.81 254.732C1314.81 252.613 1314.32 250.199 1314.32 247.488C1314.32 244.754 1314.82 242.321 1315.83 240.19C1316.84 238.06 1318.25 236.391 1320.05 235.183C1321.85 233.964 1323.94 233.354 1326.32 233.354C1328.14 233.354 1329.79 233.71 1331.27 234.42C1332.75 235.118 1333.97 236.107 1334.93 237.385C1335.9 238.652 1336.51 240.131 1336.76 241.824H1333.56C1333.23 240.285 1332.43 238.971 1331.17 237.882C1329.91 236.781 1328.32 236.231 1326.37 236.231C1324.63 236.231 1323.09 236.704 1321.76 237.651C1320.42 238.586 1319.37 239.894 1318.61 241.575C1317.87 243.244 1317.5 245.18 1317.5 247.381C1317.5 249.595 1317.86 251.554 1318.6 253.259C1319.33 254.951 1320.36 256.277 1321.69 257.236C1323.02 258.195 1324.59 258.674 1326.37 258.674C1327.58 258.674 1328.68 258.449 1329.68 257.999C1330.68 257.538 1331.52 256.887 1332.2 256.046C1332.88 255.206 1333.35 254.205 1333.58 253.045H1336.78C1336.54 254.691 1335.96 256.159 1335.02 257.449C1334.1 258.727 1332.9 259.733 1331.42 260.467C1329.95 261.201 1328.27 261.568 1326.37 261.568ZM1354.15 261.568C1351.8 261.568 1349.71 260.97 1347.9 259.775C1346.1 258.579 1344.69 256.928 1343.68 254.821C1342.66 252.702 1342.15 250.258 1342.15 247.488C1342.15 244.694 1342.66 242.238 1343.68 240.119C1344.69 237.989 1346.1 236.331 1347.9 235.148C1349.71 233.952 1351.8 233.354 1354.15 233.354C1356.51 233.354 1358.59 233.952 1360.38 235.148C1362.18 236.343 1363.59 238 1364.61 240.119C1365.64 242.238 1366.16 244.694 1366.16 247.488C1366.16 250.258 1365.65 252.702 1364.63 254.821C1363.61 256.928 1362.2 258.579 1360.38 259.775C1358.59 260.97 1356.51 261.568 1354.15 261.568ZM1354.15 258.674C1356.05 258.674 1357.65 258.165 1358.96 257.147C1360.28 256.129 1361.27 254.774 1361.95 253.081C1362.63 251.388 1362.98 249.524 1362.98 247.488C1362.98 245.452 1362.63 243.582 1361.95 241.877C1361.27 240.173 1360.28 238.805 1358.96 237.776C1357.65 236.746 1356.05 236.231 1354.15 236.231C1352.27 236.231 1350.67 236.746 1349.34 237.776C1348.03 238.805 1347.03 240.173 1346.34 241.877C1345.67 243.582 1345.33 245.452 1345.33 247.488C1345.33 249.524 1345.67 251.388 1346.34 253.081C1347.03 254.774 1348.03 256.129 1349.34 257.147C1350.65 258.165 1352.26 258.674 1354.15 258.674ZM1376.25 224.636V261H1373.09V224.636H1376.25ZM1387.78 224.636V261H1384.62V224.636H1387.78ZM1407.17 261.568C1404.62 261.568 1402.42 260.976 1400.56 259.793C1398.7 258.597 1397.26 256.946 1396.25 254.839C1395.24 252.72 1394.74 250.281 1394.74 247.523C1394.74 244.777 1395.24 242.339 1396.25 240.208C1397.26 238.066 1398.67 236.391 1400.45 235.183C1402.25 233.964 1404.33 233.354 1406.69 233.354C1408.17 233.354 1409.59 233.627 1410.97 234.171C1412.34 234.704 1413.57 235.527 1414.66 236.639C1415.76 237.74 1416.63 239.131 1417.27 240.812C1417.91 242.481 1418.23 244.458 1418.23 246.742V248.305H1396.92V245.517H1415C1415 243.765 1414.64 242.191 1413.93 240.794C1413.23 239.385 1412.26 238.273 1411 237.456C1409.76 236.639 1408.32 236.231 1406.69 236.231C1404.96 236.231 1403.44 236.692 1402.12 237.616C1400.81 238.539 1399.78 239.758 1399.03 241.273C1398.3 242.789 1397.93 244.446 1397.92 246.245V247.914C1397.92 250.08 1398.29 251.974 1399.03 253.596C1399.79 255.206 1400.86 256.455 1402.25 257.342C1403.63 258.23 1405.27 258.674 1407.17 258.674C1408.46 258.674 1409.59 258.473 1410.56 258.07C1411.54 257.668 1412.36 257.129 1413.03 256.455C1413.7 255.768 1414.21 255.016 1414.55 254.2L1417.55 255.176C1417.14 256.324 1416.46 257.384 1415.51 258.354C1414.58 259.325 1413.4 260.106 1412 260.698C1410.6 261.278 1408.99 261.568 1407.17 261.568ZM1435.85 261.568C1433.41 261.568 1431.28 260.959 1429.47 259.739C1427.67 258.52 1426.28 256.851 1425.28 254.732C1424.29 252.613 1423.79 250.199 1423.79 247.488C1423.79 244.754 1424.29 242.321 1425.3 240.19C1426.32 238.06 1427.73 236.391 1429.53 235.183C1431.32 233.964 1433.41 233.354 1435.79 233.354C1437.62 233.354 1439.27 233.71 1440.75 234.42C1442.23 235.118 1443.45 236.107 1444.4 237.385C1445.38 238.652 1445.98 240.131 1446.23 241.824H1443.04C1442.71 240.285 1441.91 238.971 1440.64 237.882C1439.39 236.781 1437.79 236.231 1435.85 236.231C1434.11 236.231 1432.57 236.704 1431.23 237.651C1429.89 238.586 1428.84 239.894 1428.09 241.575C1427.34 243.244 1426.97 245.18 1426.97 247.381C1426.97 249.595 1427.34 251.554 1428.07 253.259C1428.8 254.951 1429.83 256.277 1431.16 257.236C1432.5 258.195 1434.06 258.674 1435.85 258.674C1437.05 258.674 1438.15 258.449 1439.15 257.999C1440.16 257.538 1441 256.887 1441.67 256.046C1442.36 255.206 1442.82 254.205 1443.06 253.045H1446.25C1446.01 254.691 1445.43 256.159 1444.49 257.449C1443.57 258.727 1442.37 259.733 1440.89 260.467C1439.42 261.201 1437.74 261.568 1435.85 261.568ZM1463.77 233.727V236.479H1450.75V233.727H1463.77ZM1454.82 227.193H1458V253.88C1458 255.016 1458.19 255.91 1458.58 256.561C1458.97 257.2 1459.48 257.656 1460.11 257.928C1460.74 258.189 1461.41 258.319 1462.12 258.319C1462.53 258.319 1462.89 258.295 1463.18 258.248C1463.48 258.189 1463.74 258.129 1463.96 258.07L1464.64 260.929C1464.33 261.047 1463.95 261.154 1463.5 261.249C1463.05 261.355 1462.49 261.408 1461.83 261.408C1460.67 261.408 1459.55 261.154 1458.48 260.645C1457.41 260.136 1456.53 259.378 1455.85 258.372C1455.16 257.366 1454.82 256.117 1454.82 254.626V227.193ZM1470.98 261V233.727H1474.16V261H1470.98ZM1472.6 229.04C1471.95 229.04 1471.39 228.821 1470.93 228.383C1470.47 227.933 1470.23 227.394 1470.23 226.767C1470.23 226.14 1470.47 225.607 1470.93 225.169C1471.39 224.719 1471.95 224.494 1472.6 224.494C1473.25 224.494 1473.8 224.719 1474.27 225.169C1474.73 225.607 1474.96 226.14 1474.96 226.767C1474.96 227.394 1474.73 227.933 1474.27 228.383C1473.8 228.821 1473.25 229.04 1472.6 229.04ZM1493.12 261.568C1490.76 261.568 1488.68 260.97 1486.87 259.775C1485.07 258.579 1483.66 256.928 1482.64 254.821C1481.62 252.702 1481.11 250.258 1481.11 247.488C1481.11 244.694 1481.62 242.238 1482.64 240.119C1483.66 237.989 1485.07 236.331 1486.87 235.148C1488.68 233.952 1490.76 233.354 1493.12 233.354C1495.47 233.354 1497.55 233.952 1499.35 235.148C1501.15 236.343 1502.56 238 1503.58 240.119C1504.61 242.238 1505.12 244.694 1505.12 247.488C1505.12 250.258 1504.61 252.702 1503.59 254.821C1502.58 256.928 1501.16 258.579 1499.35 259.775C1497.55 260.97 1495.47 261.568 1493.12 261.568ZM1493.12 258.674C1495.01 258.674 1496.62 258.165 1497.93 257.147C1499.24 256.129 1500.24 254.774 1500.91 253.081C1501.6 251.388 1501.94 249.524 1501.94 247.488C1501.94 245.452 1501.6 243.582 1500.91 241.877C1500.24 240.173 1499.24 238.805 1497.93 237.776C1496.62 236.746 1495.01 236.231 1493.12 236.231C1491.24 236.231 1489.63 236.746 1488.31 237.776C1486.99 238.805 1485.99 240.173 1485.3 241.877C1484.63 243.582 1484.29 245.452 1484.29 247.488C1484.29 249.524 1484.63 251.388 1485.3 253.081C1485.99 254.774 1486.99 256.129 1488.31 257.147C1489.62 258.165 1491.22 258.674 1493.12 258.674ZM1515.22 243.955V261H1512.06V233.727H1515.13V238.006H1515.41C1516.05 236.61 1517.05 235.491 1518.4 234.651C1519.76 233.798 1521.44 233.372 1523.44 233.372C1525.27 233.372 1526.88 233.757 1528.27 234.526C1529.67 235.284 1530.75 236.402 1531.52 237.882C1532.3 239.362 1532.69 241.179 1532.69 243.333V261H1529.53V243.528C1529.53 241.291 1528.9 239.522 1527.65 238.219C1526.4 236.917 1524.74 236.266 1522.64 236.266C1521.21 236.266 1519.94 236.574 1518.82 237.19C1517.71 237.805 1516.83 238.693 1516.18 239.853C1515.54 241.001 1515.22 242.368 1515.22 243.955Z" fill="#A0A6E5"/>
<path d="M28 7.59473C28.2361 7.59473 28.433 7.69826 28.5371 7.86914L28.5762 7.94727C30.0289 11.5616 32.9194 17.9487 36.4854 21.5146C40.0513 25.0806 46.4384 27.9711 50.0527 29.4238C50.2697 29.511 50.4053 29.73 50.4053 30C50.4053 30.27 50.2697 30.489 50.0527 30.5762C46.4384 32.0289 40.0513 34.9194 36.4854 38.4854C32.9194 42.0513 30.0289 48.4384 28.5762 52.0527C28.489 52.2697 28.27 52.4053 28 52.4053C27.73 52.4053 27.511 52.2697 27.4238 52.0527C25.9711 48.4384 23.0806 42.0513 19.5146 38.4854C16.1713 35.142 10.3482 32.3928 6.65527 30.8652L5.94727 30.5762C5.73028 30.489 5.59473 30.27 5.59473 30C5.59473 29.7639 5.69826 29.567 5.86914 29.4629L5.94727 29.4238C9.56164 27.9711 15.9487 25.0806 19.5146 21.5146C22.858 18.1713 25.6072 12.3482 27.1348 8.65527L27.4238 7.94727C27.511 7.73028 27.73 7.59473 28 7.59473Z" fill="#A0A6E5" stroke="#A0A6E5"/>
<path d="M28 247.595C28.2361 247.595 28.433 247.698 28.5371 247.869L28.5762 247.947C30.0289 251.562 32.9194 257.949 36.4854 261.515C40.0513 265.081 46.4384 267.971 50.0527 269.424C50.2697 269.511 50.4053 269.73 50.4053 270C50.4053 270.27 50.2697 270.489 50.0527 270.576C46.4384 272.029 40.0513 274.919 36.4854 278.485C32.9194 282.051 30.0289 288.438 28.5762 292.053C28.489 292.27 28.27 292.405 28 292.405C27.73 292.405 27.511 292.27 27.4238 292.053C25.9711 288.438 23.0806 282.051 19.5146 278.485C16.1713 275.142 10.3482 272.393 6.65527 270.865L5.94727 270.576C5.73028 270.489 5.59473 270.27 5.59473 270C5.59473 269.764 5.69826 269.567 5.86914 269.463L5.94727 269.424C9.56164 267.971 15.9487 265.081 19.5146 261.515C22.858 258.171 25.6072 252.348 27.1348 248.655L27.4238 247.947C27.511 247.73 27.73 247.595 28 247.595Z" fill="#A0A6E5" stroke="#A0A6E5"/>
<path d="M28 240L28 60" stroke="#A0A6E5" stroke-width="2" stroke-linecap="round"/>
<path d="M1970.96 7.76045C1971.32 6.87338 1972.68 6.87338 1973.04 7.76045C1974.49 11.3795 1977.35 17.6759 1980.84 21.1612C1984.32 24.6464 1990.62 27.5052 1994.24 28.9598C1995.13 29.3163 1995.13 30.6837 1994.24 31.0402C1990.62 32.4948 1984.32 35.3536 1980.84 38.8388C1977.35 42.3241 1974.49 48.6205 1973.04 52.2396C1972.68 53.1266 1971.32 53.1266 1970.96 52.2396C1969.51 48.6205 1966.65 42.3241 1963.16 38.8388C1959.68 35.3536 1953.38 32.4948 1949.76 31.0402C1948.87 30.6837 1948.87 29.3163 1949.76 28.9598C1953.38 27.5052 1959.68 24.6464 1963.16 21.1612C1966.65 17.6759 1969.51 11.3795 1970.96 7.76045Z" fill="#A0A6E5"/>
<path d="M1970.96 247.76C1971.32 246.873 1972.68 246.873 1973.04 247.76C1974.49 251.379 1977.35 257.676 1980.84 261.161C1984.32 264.646 1990.62 267.505 1994.24 268.96C1995.13 269.316 1995.13 270.684 1994.24 271.04C1990.62 272.495 1984.32 275.354 1980.84 278.839C1977.35 282.324 1974.49 288.621 1973.04 292.24C1972.68 293.127 1971.32 293.127 1970.96 292.24C1969.51 288.621 1966.65 282.324 1963.16 278.839C1959.68 275.354 1953.38 272.495 1949.76 271.04C1948.87 270.684 1948.87 269.316 1949.76 268.96C1953.38 267.505 1959.68 264.646 1963.16 261.161C1966.65 257.676 1969.51 251.379 1970.96 247.76Z" fill="#A0A6E5"/>
<path d="M1972 240V60" stroke="#A0A6E5" stroke-width="2" stroke-linecap="round"/>
</g>
<defs>
<clipPath id="clip0_485_60">
<rect width="2000" height="300" fill="white"/>
</clipPath>
</defs>
</svg>
